uphill_walking_calibrated_grf.mot																																				
version=1																																				
nRows=24																																				
nColumns=37																																				
inDegrees=yes																																				
endheader																																				
time	ground_force1_vx	ground_force1_vy	ground_force1_vz	ground_force1_px	ground_force1_py	ground_force1_pz	ground_torque1_x	ground_torque1_y	ground_torque1_z	ground_force2_vx	ground_force2_vy	ground_force2_vz	ground_force2_px	ground_force2_py	ground_force2_pz	ground_torque2_x	ground_torque2_y	ground_torque2_z	femur_assistance_force_vx	femur_assistance_force_vy	femur_assistance_force_vz	femur_assistance_force_px	femur_assistance_force_py	femur_assistance_force_pz	femur_assistance_torque_x	femur_assistance_torque_y	femur_assistance_torque_z	tibia_assistance_force_vx	tibia_assistance_force_vy	tibia_assistance_force_vz	tibia_assistance_force_px	tibia_assistance_force_py	tibia_assistance_force_pz	tibia_assistance_torque_x	tibia_assistance_torque_y	tibia_assistance_torque_z
25.6	286.14035	705.542603	24.767208	0.470492	0	-0.6498	-0.000017	4.122359	0.000017	53.570866	130.749008	-0.573352	1.021891	0	-0.485124	0	0.507617	-0.000001	0	0	0	0	-0.2	0	0	0	0	0	0	0	0	-0.2	0	0	0	0
25.601	287.132172	702.948608	24.309444	0.467887	0	-0.649283	-0.000004	4.038346	0.00001	57.690739	137.310287	0.952527	1.013955	0	-0.467721	0.000002	4.003704	0.000014	0	0	0	0	-0.2	0	0	0	0	0	0	0	0	-0.2	0	0	0	0
25.602	287.818817	700.354614	24.385738	0.465437	0	-0.648153	0.000032	4.283122	-0.000007	58.758854	141.277573	3.699109	1.00017	0	-0.462795	0.000007	8.017649	0.000002	0	0	0	0	-0.2	0	0	0	0	0	0	0	0	-0.2	0	0	0	0
25.603	287.513641	699.286499	24.309444	0.465275	0	-0.648219	0.000004	3.610514	0.000021	61.123966	144.176743	5.759045	0.980058	0	-0.465766	0.000002	10.961604	0	0	0	0	0	-0.2	0	0	0	0	0	0	0	0	-0.2	0	0	0	0
25.604	287.818817	698.370972	23.699093	0.467283	0	-0.648214	-0.000024	3.503983	0.000006	66.617134	145.09227	5.377575	0.959572	0	-0.480915	0.000005	11.234816	0.000006	0	0	0	0	-0.2	0	0	0	0	0	0	0	0	-0.2	0	0	0	0
25.605	288.581757	699.133911	22.630978	0.469043	0	-0.649513	-0.000006	3.337167	-0.000003	74.170235	143.871567	3.317638	0.943108	0	-0.500692	0.000004	9.082351	0.000012	0	0	0	0	-0.2	0	0	0	0	0	0	0	0	-0.2	0	0	0	0
25.606	289.42099	698.981323	21.639156	0.471067	0	-0.649847	0.000028	2.835327	0.000014	80.960396	143.871567	1.486583	0.92529	0	-0.510874	0.000002	6.36749	0.000007	0	0	0	0	-0.2	0	0	0	0	0	0	0	0	-0.2	0	0	0	0
25.607	289.726166	698.52356	19.731808	0.470677	0	-0.650501	0.000028	2.169512	0.00002	84.851387	143.871567	1.868052	0.921896	0	-0.51045	0.000001	4.679407	0.000004	0	0	0	0	-0.2	0	0	0	0	0	0	0	0	-0.2	0	0	0	0
25.608	289.80246	696.845093	17.442989	0.468307	0	-0.650598	0.000017	1.525668	0.000022	86.224678	144.32933	4.690928	0.931659	0	-0.498681	0.000002	4.603234	0.000005	0	0	0	0	-0.2	0	0	0	0	0	0	0	0	-0.2	0	0	0	0
25.609	288.886932	694.556274	15.688227	0.467214	0	-0.650548	0.000007	0.607331	0.000018	87.292793	143.566391	7.513804	0.947663	0	-0.491128	0.000004	4.176974	0.000003	0	0	0	0	-0.2	0	0	0	0	0	0	0	0	-0.2	0	0	0	0
25.61	287.666229	692.114868	14.086054	0.465511	0	-0.650659	0.000005	0.348729	0.000027	90.115669	143.718979	8.887094	0.957699	0	-0.491881	0.000004	1.759393	0.000008	0	0	0	0	-0.2	0	0	0	0	0	0	0	0	-0.2	0	0	0	0
25.611	286.369232	689.215698	13.704584	0.465521	0	-0.650016	0.000006	0.102484	0.000025	94.998482	146.770737	8.42933	0.965232	0	-0.498287	0.000005	-2.524037	0.00001	0	0	0	0	-0.2	0	0	0	0	0	0	0	0	-0.2	0	0	0	0
25.612	285.911469	687.842407	13.780878	0.466627	0	-0.650411	0.000017	0.029378	0.000004	100.644234	155.620834	6.903451	0.961326	0	-0.498973	0	-6.28683	0.000007	0	0	0	0	-0.2	0	0	0	0	0	0	0	0	-0.2	0	0	0	0
25.613	285.835175	685.858765	13.780878	0.465663	0	-0.650568	0.000015	0.023044	0.000015	103.619698	167.675278	6.140512	0.965017	0	-0.496226	0.000005	-7.264352	0.000008	0	0	0	0	-0.2	0	0	0	0	0	0	0	0	-0.2	0	0	0	0
25.614	286.14035	682.501831	14.314936	0.462946	0	-0.650051	0.000023	0.59227	0.000027	102.093819	181.408188	6.979745	0.964637	0	-0.485913	0.000008	-4.247389	0.000003	0	0	0	0	-0.2	0	0	0	0	0	0	0	0	-0.2	0	0	0	0
25.615	286.292938	678.381958	14.925287	0.460719	0	-0.649272	0.000033	1.736382	0.000017	97.058418	192.85228	7.971567	0.957399	0	-0.479233	0.000003	0.146009	0.000008	0	0	0	0	-0.2	0	0	0	0	0	0	0	0	-0.2	0	0	0	0
25.616	285.453705	672.888794	14.848993	0.458493	0	-0.647975	0.000036	2.268537	-0.000002	92.023018	199.413559	8.658213	0.954057	0	-0.478768	0.000003	2.095496	0.000015	0	0	0	0	-0.2	0	0	0	0	0	0	0	0	-0.2	0	0	0	0
25.617	284.461884	667.853394	13.475702	0.457381	0	-0.647713	-0.000006	1.727111	0.000009	89.810493	202.92308	7.742686	0.943572	0	-0.479511	0.000005	1.112995	-0.000001	0	0	0	0	-0.2	0	0	0	0	0	0	0	0	-0.2	0	0	0	0
25.618	283.088593	664.954224	11.720942	0.45864	0	-0.648778	0.000033	-0.021009	0.000017	90.268257	205.82225	3.012461	0.933246	0	-0.484619	0.000007	-1.176653	0.000013	0	0	0	0	-0.2	0	0	0	0	0	0	0	0	-0.2	0	0	0	0
25.619	282.554535	662.665405	10.958003	0.458751	0	-0.649916	0.000011	-1.710032	0.000025	90.878609	211.010239	-3.7777	0.919557	0	-0.488034	0.000005	-3.004959	0.00001	0	0	0	0	-0.2	0	0	0	0	0	0	0	0	-0.2	0	0	0	0
25.62	283.775238	660.376587	12.407588	0.459232	0	-0.650138	0.000032	-0.528416	0.000009	89.581612	218.487045	-9.347158	0.913231	0	-0.486698	0	-3.171399	0.000018	0	0	0	0	-0.2	0	0	0	0	0	0	0	0	-0.2	0	0	0	0
25.621	285.377411	658.850708	15.001581	0.459925	0	-0.649793	0.00002	1.988579	0.000004	86.529854	225.200912	-13.772207	0.914192	0	-0.487094	0.000004	-1.267182	0.00001	0	0	0	0	-0.2	0	0	0	0	0	0	0	0	-0.2	0	0	0	0
25.622	285.529999	655.493774	16.908932	0.458556	0	-0.649159	0.000029	4.683206	0.000024	82.791451	228.710434	-15.908438	0.917777	0	-0.490028	0.000006	1.405339	0.000001	0	0	0	0	-0.2	0	0	0	0	0	0	0	0	-0.2	0	0	0	0
25.623	284.156708	650.00061	16.985226	0.457736	0	-0.648004	0.000034	6.237015	0.00001	80.807808	230.083725	-16.518787	0.920788	0	-0.495061	0.000007	2.885717	0.000006	0	0	0	0	-0.2	0	0	0	0	0	0	0	0	-0.2	0	0	0	0
